<svg xmlns="http://www.w3.org/2000/svg" xmlns:xlink="http://www.w3.org/1999/xlink">



<symbol id="twitter" viewBox="0 0 512 512"><path d="M512,97.248c-19.04,8.352-39.328,13.888-60.48,16.576c21.76-12.992,38.368-33.408,46.17658.016
c-20.288,12.096-42.688,20.64-66.56,25.408C411.872,60.704,384.416,48,354.464,48c-58.112,0-104.896,47.168-104.896,104.992
c0,8.32,0.704,16.32,2.432,23.936c-87.264-4.256-164.48-46.08-216.352-109.792c-9.056,15.712-14.368,33.696-14.368,53.056
c0,36.352,18.72,68.576,46.624,87.232c-16.864-0.32-33.408-5.216-47.424-12.928c0,0.32,0,0.736,0,1.152
c0,51.008,36.384,93.376,84.096,103.136c-8.544,2.336-17.856,3.456-27.52,3.456c-6.72,0-13.504-0.384-19.872-1.792
c13.6,41.568,52.192,72.128,98.08,73.12c-35.712,27.936-81.056,44.768-130.144,44.768c-8.608,0-16.864-0.384-25.12-1.44
C46.496,446.88,101.6,464,161.024,464c193.152,0,298.752-160,298.752-298.688c0-4.64-0.16-9.12-0.384-13.568
C480.224,136.96,497.728,118.496,512,97.248z"/></symbol><!-- TWITTER -->

<symbol id="facebook" viewBox="0 0 112.196 112.196"><circle cx="56.098" cy="56.098" r="56.098"/><path style="fill:#FFFFFF;" d="M70.201,58.294h-10.01v36.672H45.025V58.294h-7.213V45.406h7.213v-8.34c0-5.964,2.833-15.303,15.301-15.303L71.56,21.81v12.51h-8.151c-1.337,0-3.217,0.668-3.217,3.513v7.585h11.334L70.201,58.294z"/></symbol>

<symbol id="pinterest"><path d="M145.659,0c80.45,0,145.66,65.219,145.66,145.66c0,80.45-65.21,145.659-145.66,145.659
S0,226.109,0,145.66C0,65.219,65.21,0,145.659,0z"/>
<path style="fill:#FFFFFF;" d="M150.066,63.781c-51.327,0-77.19,35.632-77.19,65.337c0,17.989,7.028,33.993,22.122,39.956
c2.467,0.974,4.698,0.036,5.408-2.613l2.203-8.403c0.728-2.613,0.446-3.541-1.548-5.826c-4.361-4.962-7.128-11.398-7.128-20.511
c0-26.428,20.42-50.089,53.175-50.089c29.014,0,44.945,17.161,44.945,40.075c0,30.152-13.783,55.606-34.248,55.606
c-11.289,0-19.755-9.04-17.042-20.156c3.241-13.237,9.541-27.539,9.541-37.107c0-8.548-4.743-15.704-14.575-15.704
c-11.553,0-20.829,11.571-20.829,27.074c0,9.878,3.45,16.551,3.45,16.551l-13.901,56.998c-4.124,16.906-0.61,37.644-0.319,39.738
c0.182,1.238,1.821,1.529,2.567,0.601c1.065-1.347,14.821-17.798,19.5-34.239c1.329-4.652,7.602-28.75,7.602-28.75
c3.751,6.946,14.721,13.046,26.383,13.046c34.712,0,58.273-30.652,58.273-71.674C218.444,92.676,191.315,63.781,150.066,63.781z"/>
</symbol>

<symbol id="instagram" viewBox="0 0 551.034 551.034">
<linearGradient id="SVGID_1_" gradientUnits="userSpaceOnUse" x1="275.517" y1="4.57" x2="275.517" y2="549.72" gradientTransform="matrix(1 0 0 -1 0 554)">
<stop  offset="0" style="stop-color:#E09B3D"/>
<stop  offset="0.3" style="stop-color:#C74C4D"/>
<stop  offset="0.6" style="stop-color:#C21975"/>
<stop  offset="1" style="stop-color:#7024C4"/>
</linearGradient>
<path style="fill:url(#SVGID_1_);" d="M386.878,0H164.156C73.64,0,0,73.64,0,164.156v222.722
c0,90.516,73.64,164.156,164.156,164.156h222.722c90.516,0,164.156-73.64,164.156-164.156V164.156
C551.033,73.64,477.393,0,386.878,0z M495.6,386.878c0,60.045-48.677,108.722-108.722,108.722H164.156
c-60.045,0-108.722-48.677-108.722-108.722V164.156c0-60.046,48.677-108.722,108.722-108.722h222.722
c60.045,0,108.722,48.676,108.722,108.722L495.6,386.878L495.6,386.878z"/>
<linearGradient id="SVGID_2_" gradientUnits="userSpaceOnUse" x1="275.517" y1="4.57" x2="275.517" y2="549.72" gradientTransform="matrix(1 0 0 -1 0 554)">
<stop  offset="0" style="stop-color:#E09B3D"/>
<stop  offset="0.3" style="stop-color:#C74C4D"/>
<stop  offset="0.6" style="stop-color:#C21975"/>
<stop  offset="1" style="stop-color:#7024C4"/>
</linearGradient>
<path style="fill:url(#SVGID_2_);" d="M275.517,133C196.933,133,133,196.933,133,275.516s63.933,142.517,142.517,142.517
S418.034,354.1,418.034,275.516S354.101,133,275.517,133z M275.517,362.6c-48.095,0-87.083-38.988-87.083-87.083
s38.989-87.083,87.083-87.083c48.095,0,87.083,38.988,87.083,87.083C362.6,323.611,323.611,362.6,275.517,362.6z"/>
<linearGradient id="SVGID_3_" gradientUnits="userSpaceOnUse" x1="418.31" y1="4.57" x2="418.31" y2="549.72" gradientTransform="matrix(1 0 0 -1 0 554)">
<stop  offset="0" style="stop-color:#E09B3D"/>
<stop  offset="0.3" style="stop-color:#C74C4D"/>
<stop  offset="0.6" style="stop-color:#C21975"/>
<stop  offset="1" style="stop-color:#7024C4"/>
</linearGradient>
<circle style="fill:url(#SVGID_3_);" cx="418.31" cy="134.07" r="34.15"/>
</symbol>


</svg>
