<svg xmlns="http://www.w3.org/2000/svg" xmlns:xlink="http://www.w3.org/1999/xlink">

<symbol id="twitter" viewBox="0 0 512 512"><path d="M512,97.248c-19.04,8.352-39.328,13.888-60.48,16.576c21.76-12.992,38.368-33.408,46.17658.016
c-20.288,12.096-42.688,20.64-66.56,25.408C411.872,60.704,384.416,48,354.464,48c-58.112,0-104.896,47.168-104.896,104.992
c0,8.32,0.704,16.32,2.432,23.936c-87.264-4.256-164.48-46.08-216.352-109.792c-9.056,15.712-14.368,33.696-14.368,53.056
c0,36.352,18.72,68.576,46.624,87.232c-16.864-0.32-33.408-5.216-47.424-12.928c0,0.32,0,0.736,0,1.152
c0,51.008,36.384,93.376,84.096,103.136c-8.544,2.336-17.856,3.456-27.52,3.456c-6.72,0-13.504-0.384-19.872-1.792
c13.6,41.568,52.192,72.128,98.08,73.12c-35.712,27.936-81.056,44.768-130.144,44.768c-8.608,0-16.864-0.384-25.12-1.44
C46.496,446.88,101.6,464,161.024,464c193.152,0,298.752-160,298.752-298.688c0-4.64-0.16-9.12-0.384-13.568
C480.224,136.96,497.728,118.496,512,97.248z"/></symbol><!-- TWITTER -->

<symbol id="twitter_circle" viewBox="0 0 291.319 291.319">
<path d="M145.659,0c80.45,0,145.66,65.219,145.66,145.66c0,80.45-65.21,145.659-145.66,145.659
S0,226.109,0,145.66C0,65.219,65.21,0,145.659,0z"/>
<path style="fill:#FFFFFF;" d="M236.724,98.129c-6.363,2.749-13.21,4.597-20.392,5.435c7.338-4.27,12.964-11.016,15.613-19.072
c-6.864,3.96-14.457,6.828-22.55,8.366c-6.473-6.691-15.695-10.87-25.909-10.87c-19.591,0-35.486,15.413-35.486,34.439
c0,2.704,0.31,5.335,0.919,7.857c-29.496-1.438-55.66-15.158-73.157-35.996c-3.059,5.089-4.807,10.997-4.807,17.315
c0,11.944,6.263,22.504,15.786,28.668c-5.826-0.182-11.289-1.721-16.086-4.315v0.437c0,16.696,12.235,30.616,28.476,33.784
c-2.977,0.783-6.109,1.211-9.35,1.211c-2.285,0-4.506-0.209-6.673-0.619c4.515,13.692,17.625,23.651,33.165,23.925
c-12.153,9.249-27.457,14.748-44.089,14.748c-2.868,0-5.69-0.164-8.476-0.482c15.722,9.777,34.367,15.485,54.422,15.485
c65.292,0,100.997-52.51,100.997-98.029l-0.1-4.461C225.945,111.111,231.963,105.048,236.724,98.129z"/>
</symbol><!-- - Twitter Circle -->

<symbol id="facebook" viewBox="0 0 112.196 112.196">
    <circle cx="56.098" cy="56.098" r="56.098"/><path style="fill:#FFFFFF;" d="M70.201,58.294h-10.01v36.672H45.025V58.294h-7.213V45.406h7.213v-8.34c0-5.964,2.833-15.303,15.301-15.303L71.56,21.81v12.51h-8.151c-1.337,0-3.217,0.668-3.217,3.513v7.585h11.334L70.201,58.294z"/>
</symbol><!-- - Facebook -->

<symbol id="heart" viewBox="0 0 510 510">
<path d="M255,489.6l-35.7-35.7C86.7,336.6,0,257.55,0,160.65C0,81.6,61.2,20.4,140.25,20.4c43.35,0,86.7,20.4,114.75,53.55
C283.05,40.8,326.4,20.4,369.75,20.4C448.8,20.4,510,81.6,510,160.65c0,96.9-86.7,175.95-219.3,293.25L255,489.6z"/>
</symbol><!-- - Heart -->

<symbol id="email" viewBox="0 0 299.997 299.997">
<path d="M149.996,0C67.157,0,0.001,67.158,0.001,149.997c0,82.837,67.156,150,149.995,150s150-67.163,150-150
C299.996,67.158,232.835,0,149.996,0z M149.999,52.686l88.763,55.35H61.236L149.999,52.686z M239.868,196.423h-0.009
c0,8.878-7.195,16.072-16.072,16.072H76.211c-8.878,0-16.072-7.195-16.072-16.072v-84.865c0-0.939,0.096-1.852,0.252-2.749
l84.808,52.883c0.104,0.065,0.215,0.109,0.322,0.169c0.112,0.062,0.226,0.122,0.34,0.179c0.599,0.309,1.216,0.558,1.847,0.721
c0.065,0.018,0.13,0.026,0.195,0.041c0.692,0.163,1.393,0.265,2.093,0.265h0.005c0.005,0,0.01,0,0.01,0
c0.7,0,1.401-0.099,2.093-0.265c0.065-0.016,0.13-0.023,0.195-0.041c0.63-0.163,1.245-0.412,1.847-0.721
c0.114-0.057,0.228-0.117,0.34-0.179c0.106-0.06,0.218-0.104,0.322-0.169l84.808-52.883c0.156,0.897,0.252,1.808,0.252,2.749
V196.423z"/>
</symbol><!-- - Email -->

<symbol id="linkedin" viewBox="0 0 112.196 112.196">
<circle cx="56.098" cy="56.097" r="56.098"/>
<path style="fill:#F1F2F2;" d="M89.616,60.611v23.128H76.207V62.161c0-5.418-1.936-9.118-6.791-9.118
c-3.705,0-5.906,2.491-6.878,4.903c-0.353,0.862-0.444,2.059-0.444,3.268v22.524H48.684c0,0,0.18-36.546,0-40.329h13.411v5.715
c-0.027,0.045-0.065,0.089-0.089,0.132h0.089v-0.132c1.782-2.742,4.96-6.662,12.085-6.662
C83.002,42.462,89.616,48.226,89.616,60.611L89.616,60.611z M34.656,23.969c-4.587,0-7.588,3.011-7.588,6.967
c0,3.872,2.914,6.97,7.412,6.97h0.087c4.677,0,7.585-3.098,7.585-6.97C42.063,26.98,39.244,23.969,34.656,23.969L34.656,23.969z
 M27.865,83.739H41.27V43.409H27.865V83.739z"/>
</symbol><!-- - LinkedIn -->

<symbol id="skype" viewBox="0 0 400.932 400.932">
<path d="M384.762,231.039c-6.361-8.792-9.309-19.53-9.297-30.382c0.001-0.063,0.001-0.126,0.001-0.19
c0-96.649-78.35-174.999-174.999-174.999c-21.143,0-41.402,3.763-60.162,10.64c-10.149,3.72-21.267,4.435-31.672,1.504
c-9.191-2.589-19.009-3.681-29.18-2.981c-42.725,2.94-77.121,37.955-79.335,80.724c-1.057,20.414,5.065,39.351,16.053,54.539
c6.361,8.792,9.309,19.53,9.296,30.382c0,0.063,0,0.126,0,0.19c0,96.649,78.349,174.999,174.999,174.999
c21.144,0,41.403-3.763,60.162-10.64c10.149-3.72,21.267-4.435,31.672-1.504c9.191,2.589,19.008,3.681,29.18,2.981
c42.725-2.94,77.12-37.954,79.335-80.722C401.872,265.166,395.75,246.228,384.762,231.039z M206.873,169.093
c35.286,8.391,88.608,21.071,88.608,79.806c0,28.934-14.249,51.006-40.124,62.149c-18.464,7.952-39.361,9.025-57.368,9.025
c-55.336,0-90.286-43.028-91.747-44.86c-9.062-11.366-7.197-27.928,4.17-36.99c11.364-9.066,27.926-7.196,36.99,4.167
c0.081,0.097,20.982,24.101,50.587,25.04c35.65,1.131,43.795-9.476,44.848-18.53c1.287-11.058-8.55-19.176-48.146-28.592
c-33.562-7.982-84.287-20.044-84.287-74.137c0-16.845,6.851-71.807,95.013-71.807c55.668,0,88.527,43.829,89.899,45.695
c8.61,11.713,6.096,28.189-5.617,36.798c-11.662,8.572-28.034,6.119-36.677-5.452c-0.62-0.797-19.429-21.723-47.605-24.398
c-21.32-2.025-42.37,5.663-42.37,17.02C163.047,156.06,169.092,160.108,206.873,169.093z"/>
</symbol><!-- - Skype -->

<symbol id="instagram_mono" viewBox="0 0 512 512">
<path d="M352,0H160C71.648,0,0,71.648,0,160v192c0,88.352,71.648,160,160,160h192c88.352,0,160-71.648,160-160V160
C512,71.648,440.352,0,352,0z M464,352c0,61.76-50.24,112-112,112H160c-61.76,0-112-50.24-112-112V160C48,98.24,98.24,48,160,48
h192c61.76,0,112,50.24,112,112V352z"/>
<path d="M256,128c-70.688,0-128,57.312-128,128s57.312,128,128,128s128-57.312,128-128S326.688,128,256,128z M256,336
c-44.096,0-80-35.904-80-80c0-44.128,35.904-80,80-80s80,35.872,80,80C336,300.096,300.096,336,256,336z"/>
<circle cx="393.6" cy="118.4" r="17.056"/>
</symbol><!-- - Instagram Mono -->

<symbol id="instagram" viewBox="0 0 551.034 551.034">
<linearGradient id="SVGID_1_" gradientUnits="userSpaceOnUse" x1="275.517" y1="4.57" x2="275.517" y2="549.72" gradientTransform="matrix(1 0 0 -1 0 554)">
<stop  offset="0" style="stop-color:#E09B3D"/>
<stop  offset="0.3" style="stop-color:#C74C4D"/>
<stop  offset="0.6" style="stop-color:#C21975"/>
<stop  offset="1" style="stop-color:#7024C4"/>
</linearGradient>
<path style="fill:url(#SVGID_1_);" d="M386.878,0H164.156C73.64,0,0,73.64,0,164.156v222.722
c0,90.516,73.64,164.156,164.156,164.156h222.722c90.516,0,164.156-73.64,164.156-164.156V164.156
C551.033,73.64,477.393,0,386.878,0z M495.6,386.878c0,60.045-48.677,108.722-108.722,108.722H164.156
c-60.045,0-108.722-48.677-108.722-108.722V164.156c0-60.046,48.677-108.722,108.722-108.722h222.722
c60.045,0,108.722,48.676,108.722,108.722L495.6,386.878L495.6,386.878z"/>
<linearGradient id="SVGID_2_" gradientUnits="userSpaceOnUse" x1="275.517" y1="4.57" x2="275.517" y2="549.72" gradientTransform="matrix(1 0 0 -1 0 554)">
<stop  offset="0" style="stop-color:#E09B3D"/>
<stop  offset="0.3" style="stop-color:#C74C4D"/>
<stop  offset="0.6" style="stop-color:#C21975"/>
<stop  offset="1" style="stop-color:#7024C4"/>
</linearGradient>
<path style="fill:url(#SVGID_2_);" d="M275.517,133C196.933,133,133,196.933,133,275.516s63.933,142.517,142.517,142.517
S418.034,354.1,418.034,275.516S354.101,133,275.517,133z M275.517,362.6c-48.095,0-87.083-38.988-87.083-87.083
s38.989-87.083,87.083-87.083c48.095,0,87.083,38.988,87.083,87.083C362.6,323.611,323.611,362.6,275.517,362.6z"/>
<linearGradient id="SVGID_3_" gradientUnits="userSpaceOnUse" x1="418.31" y1="4.57" x2="418.31" y2="549.72" gradientTransform="matrix(1 0 0 -1 0 554)">
<stop  offset="0" style="stop-color:#E09B3D"/>
<stop  offset="0.3" style="stop-color:#C74C4D"/>
<stop  offset="0.6" style="stop-color:#C21975"/>
<stop  offset="1" style="stop-color:#7024C4"/>
</linearGradient>
<circle style="fill:url(#SVGID_3_);" cx="418.31" cy="134.07" r="34.15"/>
</symbol><!-- - Instagram Color -->

</svg>
